<svg width="98" height="13" viewBox="0 0 98 13" fill="none" xmlns="http://www.w3.org/2000/svg">
<g clip-path="url(#clip0_1_2)">
<rect width="97.1" height="12.7" fill="white"/>
<path d="M35.0056 1.57786L30.1974 6.38614L35.0056 11.1944L39.8139 6.38614L35.0056 1.57786Z" stroke="#FE9D01" stroke-width="0.75" stroke-miterlimit="9.9998"/>
<path d="M62.1106 1.59045L57.3023 6.39873L62.1106 11.207L66.9188 6.39873L62.1106 1.59045Z" stroke="#FE9D01" stroke-width="0.75" stroke-miterlimit="9.9998"/>
<path d="M48.6 12.1L39.8 6.40001L48.6 0.600006L57.3 6.40001L48.6 12.1Z" stroke="#FE9D01" stroke-width="0.75" stroke-miterlimit="10"/>
<path d="M3.2 6.39999H30.2" stroke="#FE9D01" stroke-width="0.75" stroke-miterlimit="10"/>
<path d="M2.60001 8.89999C3.98072 8.89999 5.10001 7.78071 5.10001 6.39999C5.10001 5.01928 3.98072 3.89999 2.60001 3.89999C1.21929 3.89999 0.100006 5.01928 0.100006 6.39999C0.100006 7.78071 1.21929 8.89999 2.60001 8.89999Z" fill="#FE9D01"/>
<path d="M93.9 6.39999H66.9" stroke="#FE9D01" stroke-width="0.75" stroke-miterlimit="10"/>
<path d="M94.4 8.89999C95.7807 8.89999 96.9 7.78071 96.9 6.39999C96.9 5.01928 95.7807 3.89999 94.4 3.89999C93.0193 3.89999 91.9 5.01928 91.9 6.39999C91.9 7.78071 93.0193 8.89999 94.4 8.89999Z" fill="#FE9D01"/>
</g>
<defs>
<clipPath id="clip0_1_2">
<rect width="97.1" height="12.7" fill="white"/>
</clipPath>
</defs>
</svg>
