<svg width="260" height="37" viewBox="0 0 260 37" fill="none" xmlns="http://www.w3.org/2000/svg">
<rect width="260" height="37" fill="white"/>
<path d="M93.7329 4.59691L80.858 18.6053L93.7329 32.6137L106.608 18.6053L93.7329 4.59691Z" stroke="#FE9D01" stroke-width="0.75" stroke-miterlimit="9.9998"/>
<path d="M166.31 4.6336L153.436 18.642L166.31 32.6503L179.185 18.642L166.31 4.6336Z" stroke="#FE9D01" stroke-width="0.75" stroke-miterlimit="9.9998"/>
<path d="M130.134 35.252L106.571 18.6457L130.134 1.74803L153.429 18.6457L130.134 35.252Z" stroke="#FE9D01" stroke-width="0.75" stroke-miterlimit="10"/>
<path d="M8.56849 18.6457H80.8651" stroke="#FE9D01" stroke-width="0.75" stroke-miterlimit="10"/>
<path d="M6.9619 25.9291C10.659 25.9291 13.656 22.6682 13.656 18.6457C13.656 14.6231 10.659 11.3622 6.9619 11.3622C3.26483 11.3622 0.267769 14.6231 0.267769 18.6457C0.267769 22.6682 3.26483 25.9291 6.9619 25.9291Z" fill="#FE9D01"/>
<path d="M251.432 18.6457H179.135" stroke="#FE9D01" stroke-width="0.75" stroke-miterlimit="10"/>
<path d="M252.77 25.9291C256.467 25.9291 259.464 22.6682 259.464 18.6457C259.464 14.6231 256.467 11.3622 252.77 11.3622C249.073 11.3622 246.076 14.6231 246.076 18.6457C246.076 22.6682 249.073 25.9291 252.77 25.9291Z" fill="#FE9D01"/>
</svg>
